<!-- Generated by IcoMoon.io -->
<svg version="1.1" xmlns="http://www.w3.org/2000/svg" width="768" height="768" viewBox="0 0 768 768">
<title></title>
<g id="icomoon-ignore">
</g>
<path fill="#1F00FF" d="M544.5 480v-127.5h-64.5v127.5h64.5zM415.5 415.5v-63h-63v63h63zM415.5 607.5v-127.5h-63v127.5h63zM288 480v-127.5h-64.5v127.5h64.5zM544.5 607.5v-63h-64.5v63h64.5zM288 607.5v-63h-64.5v63h64.5zM639 127.5l1.5 513q0 25.5-19.5 44.25t-45 18.75h-384q-25.5 0-45-18.75t-19.5-44.25v-384l192-192h256.5q25.5 0 44.25 18.75t18.75 44.25z"></path>
</svg>
